<svg width="52" height="52" viewBox="0 0 52 52" fill="none" xmlns="http://www.w3.org/2000/svg">
<rect width="52" height="52" fill="#134881"/>
<path d="M49.4508 47.3211C49.4414 48.4978 48.483 49.451 47.3041 49.451H25.6409L16.3812 33.4125H49.4508V47.3211ZM2.54901 47.3042V37.8873L22.9513 2.54907H30.9245L13.6884 32.4039L23.53 49.4508H4.69545C3.51066 49.4508 2.54901 48.489 2.54901 47.3042ZM28.6921 31.5834H20.6309C19.7307 31.5834 18.8992 31.1112 18.4498 30.3315C17.9992 29.5524 17.9992 28.5919 18.4498 27.8128L22.4822 20.8273L28.6921 31.5834ZM47.3043 2.54907C48.4832 2.54907 49.4415 3.50209 49.451 4.67922V31.5834H30.804L23.5377 18.9995L33.0352 2.54907H47.3043Z" fill="url(#paint0_radial_320_16555)"/>
<defs>
<radialGradient id="paint0_radial_320_16555" cx="0" cy="0" r="1" gradientUnits="userSpaceOnUse" gradientTransform="translate(38.4178 -6.29511) scale(55.7128)">
<stop stop-color="#6BE1FB"/>
<stop offset="1" stop-color="#38BDFA"/>
</radialGradient>
</defs>
</svg>
