<svg width="92" height="113" viewBox="0 0 92 113" fill="none" xmlns="http://www.w3.org/2000/svg">
<path d="M89.0618 38.5256C88.4063 39.0341 76.8343 45.5549 76.8343 60.0542C76.8343 76.8251 91.5593 82.7582 92 82.9051C91.9322 83.2667 89.6607 91.0306 84.2363 98.9414C79.3996 105.903 74.3481 112.853 66.6636 112.853C58.979 112.853 57.0013 108.389 48.1302 108.389C39.4851 108.389 36.4113 113 29.3821 113C22.353 113 17.4485 106.558 11.8094 98.6476C5.27748 89.358 0 74.9265 0 61.2295C0 39.2601 14.2842 27.6087 28.3425 27.6087C35.8123 27.6087 42.0391 32.5134 46.7289 32.5134C51.1927 32.5134 58.154 27.3148 66.6523 27.3148C69.873 27.3148 81.445 27.6087 89.0618 38.5256ZM62.6179 18.014C66.1324 13.8439 68.6186 8.05771 68.6186 2.27153C68.6186 1.46915 68.5508 0.655466 68.4039 0C62.6857 0.214721 55.8826 3.80848 51.7804 8.56626C48.5596 12.2278 45.5536 18.014 45.5536 23.8793C45.5536 24.7608 45.7005 25.6423 45.7683 25.9248C46.13 25.9926 46.7176 26.0717 47.3052 26.0717C52.4358 26.0717 58.8886 22.6362 62.6179 18.014Z" fill="white"/>
</svg>
