<svg width="305" height="45" viewBox="0 0 305 45" fill="none" xmlns="http://www.w3.org/2000/svg">
<path fill-rule="evenodd" clip-rule="evenodd" d="M305 37.8723H283.981V10.5063H304.633V13.5808H288.148V22.3791H302.938V25.4152H288.148V34.8353H305V37.8723ZM276.699 30.3982C276.699 32.9651 275.554 34.9783 273.265 36.431C271.218 37.7821 268.641 38.4557 265.526 38.4557C262.779 38.4557 260.397 37.9222 258.383 36.86C256.154 35.6663 254.823 33.9928 254.399 31.8376C255.68 31.4739 256.916 31.2014 258.109 31.02L258.201 31.1755C259.206 33.9266 261.726 35.3026 265.754 35.3026C267.616 35.3026 269.159 34.9015 270.379 34.0954C271.753 33.2395 272.44 32.0468 272.44 30.5143C272.44 28.5693 270.944 27.1155 267.952 26.155C265.175 25.3518 262.395 24.5467 259.619 23.7417C256.627 22.4175 255.13 20.3429 255.13 17.514C255.13 15.2044 256.259 13.337 258.52 11.9082C260.534 10.6109 262.963 9.96317 265.801 9.96317C268.212 9.96317 270.395 10.4171 272.35 11.3248C274.608 12.388 275.889 13.8562 276.195 15.7225C274.942 16.0872 273.647 16.3856 272.304 16.6188C271.448 14.2582 269.311 13.076 265.892 13.076C264.152 13.076 262.669 13.4407 261.45 14.1661C260.045 14.998 259.345 16.1275 259.345 17.5524C259.345 19.3689 260.839 20.719 263.832 21.6009C266.609 22.4059 269.386 23.1976 272.166 23.9748C275.186 25.324 276.699 27.4658 276.699 30.3982ZM235.855 15.0259L230.245 27.127H241.563L235.855 15.0259ZM246.713 37.8723L243.003 30.2025H228.781L224.955 37.8723H220.786L234.295 10.4305H237.591L250.873 37.8723H246.713ZM202.969 37.8723C206.279 37.8723 209.294 37.2035 211.931 35.887C214.509 34.5973 216.558 32.7213 218.029 30.3099L214.698 28.5482C211.861 32.5601 208.018 34.5935 203.286 34.5935C199.001 34.5935 195.581 33.3192 193.118 30.8051C190.864 28.4992 189.719 25.4382 189.719 21.7026C189.719 18.1138 190.864 15.0978 193.118 12.7335C195.546 10.1589 198.864 8.85391 202.969 8.85391C208.106 8.85391 211.805 10.4257 213.968 13.5251L217.388 11.8487C216.018 9.9056 214.053 8.36549 211.543 7.2543C209.097 6.17478 206.402 5.62207 203.547 5.62207C197.925 5.62207 193.408 7.12092 190.121 10.0754C186.84 13.0252 185.175 16.9527 185.175 21.7477C185.175 26.3949 186.764 30.2466 189.892 33.1992C193.158 36.3015 197.56 37.8723 202.969 37.8723ZM178.71 37.8723H157.689V10.5063H178.343V13.5808H161.857V22.3791H176.648V25.4152H161.857V34.8353H178.71V37.8723ZM150.409 30.3982C150.409 32.9651 149.264 34.9783 146.975 36.431C144.929 37.7821 142.35 38.4557 139.234 38.4557C136.488 38.4557 134.106 37.9222 132.092 36.86C129.863 35.6663 128.534 33.9928 128.108 31.8376C129.389 31.4739 130.627 31.2014 131.817 31.02L131.909 31.1755C132.916 33.9266 135.435 35.3026 139.463 35.3026C141.327 35.3026 142.866 34.9015 144.088 34.0954C145.463 33.2395 146.151 32.0468 146.151 30.5143C146.151 28.5693 144.655 27.1155 141.662 26.155C138.884 25.3518 136.107 24.5467 133.329 23.7417C130.335 22.4175 128.84 20.3429 128.84 17.514C128.84 15.2044 129.97 13.337 132.228 11.9082C134.244 10.6109 136.672 9.96317 139.509 9.96317C141.922 9.96317 144.105 10.4171 146.059 11.3248C148.317 12.388 149.6 13.8562 149.904 15.7225C148.653 16.0872 147.356 16.3856 146.013 16.6188C145.158 14.2582 143.02 13.076 139.602 13.076C137.863 13.076 136.38 13.4407 135.16 14.1661C133.755 14.998 133.054 16.1275 133.054 17.5524C133.054 19.3689 134.548 20.719 137.541 21.6009C140.319 22.4059 143.098 23.1976 145.875 23.9748C148.898 25.324 150.409 27.4658 150.409 30.3982ZM109.566 15.0259L103.953 27.127H115.274L109.566 15.0259ZM120.424 37.8723L116.713 30.2025H102.49L98.6662 37.8723H94.4959L108.004 10.4305H111.303L124.582 37.8723H120.424ZM69.1881 10.1023V19.9082H76.4204C78.566 19.9082 80.3153 19.5426 81.629 18.821C83.1777 17.9929 83.9655 16.7473 83.9655 15.1161C83.9655 13.1614 83.2142 11.7643 81.7326 10.9669C80.6646 10.3921 78.9988 10.1023 76.788 10.1023H69.1881ZM69.1881 23.0508V34.7278H76.4713C79.4133 34.7278 81.6568 34.3929 83.1336 33.7356C85.213 32.849 86.2714 31.258 86.2714 29.0011C86.2714 26.9342 85.4711 25.3614 83.8926 24.3251C82.6106 23.4797 80.941 23.0508 78.9326 23.0508H69.1881ZM77.6756 37.8723H64.7501V6.91365H77.5182C80.892 6.91365 83.5558 7.54697 85.4404 8.80017C87.5102 10.1858 88.56 12.2805 88.56 15.0278C88.56 16.2618 88.1474 17.4421 87.3346 18.535C86.5228 19.6299 85.4414 20.3717 84.1239 20.744L83.552 20.9071L84.1248 21.0597C86.0728 21.5807 87.682 22.6027 88.9112 24.1005C90.1385 25.5908 90.7603 27.2863 90.7603 29.1345C90.7603 32.1446 89.4293 34.4323 86.8088 35.9369C84.5413 37.2208 81.4678 37.8723 77.6756 37.8723Z" fill="white"/>
<path fill-rule="evenodd" clip-rule="evenodd" d="M10.106 0C4.47997 0 0 4.47997 0 10.106V44.9039H34.7979C40.4239 44.9039 44.9039 40.4239 44.9039 34.7979V0H10.106Z" fill="url(#paint0_linear_304_9977)"/>
<path fill-rule="evenodd" clip-rule="evenodd" d="M34.4854 39.9036H5.00098V10.5233C5.00098 7.50191 7.50143 5.00146 10.5228 5.00146H39.9031V19.2749V34.3817C39.9031 37.4031 37.5068 39.9036 34.4854 39.9036Z" fill="white"/>
<path fill-rule="evenodd" clip-rule="evenodd" d="M19.3785 34.9027H25.6296V19.5874H19.3785V34.9027ZM10.0018 34.9027H16.253V26.0469H10.0018V34.9027Z" fill="url(#paint1_linear_304_9977)"/>
<path fill-rule="evenodd" clip-rule="evenodd" d="M28.651 10.002V35.0064H31.5682C33.4435 35.0064 34.9021 33.5478 34.9021 31.6725V10.002H28.651Z" fill="url(#paint2_linear_304_9977)"/>
<defs>
<linearGradient id="paint0_linear_304_9977" x1="4.00072" y1="2245.25" x2="4494.75" y2="2245.25" gradientUnits="userSpaceOnUse">
<stop stop-color="#203061"/>
<stop offset="1" stop-color="#0095C3"/>
</linearGradient>
<linearGradient id="paint1_linear_304_9977" x1="791.892" y1="1585.9" x2="791.892" y2="-104.018" gradientUnits="userSpaceOnUse">
<stop stop-color="#203061"/>
<stop offset="0.9945" stop-color="#0095C3"/>
</linearGradient>
<linearGradient id="paint2_linear_304_9977" x1="399.53" y1="118.699" x2="-875.072" y2="1562.56" gradientUnits="userSpaceOnUse">
<stop stop-color="#F5891F"/>
<stop offset="1" stop-color="#F05B24"/>
</linearGradient>
</defs>
</svg>
