<svg width="24" height="25" viewBox="0 0 24 25" fill="none" xmlns="http://www.w3.org/2000/svg">
<path d="M12.3096 1.56431L3.61625 3.89368C3.1039 4.03096 2.66706 4.36616 2.40184 4.82553C2.13662 5.2849 2.06475 5.83081 2.20204 6.34317L6.34315 21.798C6.48043 22.3103 6.81563 22.7472 7.275 23.0124C7.73437 23.2776 8.28028 23.3495 8.79263 23.2122L20.3837 20.1064C20.8961 19.9691 21.3329 19.6339 21.5982 19.1745C21.8634 18.7151 21.9352 18.1692 21.798 17.6569L18.4333 5.09984L12.3096 1.56431Z" stroke="#828282" stroke-width="2" stroke-linecap="round" stroke-linejoin="round"/>
<path d="M12.3096 1.56427L13.6037 6.3939L18.4333 5.0998" stroke="#828282" stroke-width="2" stroke-linecap="round" stroke-linejoin="round"/>
<path d="M16.1225 11.9307L8.39511 14.0012" stroke="#828282" stroke-width="2" stroke-linecap="round" stroke-linejoin="round"/>
<path d="M17.1578 15.7944L9.43039 17.8649" stroke="#828282" stroke-width="2" stroke-linecap="round" stroke-linejoin="round"/>
<path d="M7.35985 10.1375L10.2576 9.36107L9.48117 6.46329L6.58339 7.23975L7.35985 10.1375Z" stroke="#828282" stroke-width="2" stroke-linecap="round" stroke-linejoin="round"/>
</svg>
