<svg width="337" height="40" viewBox="0 0 337 40" fill="none" xmlns="http://www.w3.org/2000/svg">
<path fill-rule="evenodd" clip-rule="evenodd" d="M9.58155 9.6L33.5354 9.6L33.5354 0L3.8147e-06 -3.48505e-07L5.9126e-06 40L33.5354 40L33.5354 30.4L9.58155 30.4L9.58155 24.8L29.8264 24.8L29.8264 15.2L9.58155 15.2L9.58155 9.6Z" fill="white"/>
<path fill-rule="evenodd" clip-rule="evenodd" d="M237.894 40L204.358 40L204.358 -1.49291e-06L213.94 -1.06637e-06L213.94 30.4L237.894 30.4L237.894 40Z" fill="white"/>
<path fill-rule="evenodd" clip-rule="evenodd" d="M316.942 9.6C311.209 9.6 306.562 14.2562 306.562 20C306.562 25.7438 311.209 30.4 316.942 30.4C322.674 30.4 327.322 25.7438 327.322 20C327.322 14.2562 322.674 9.6 316.942 9.6ZM296.98 20C296.98 8.9543 305.917 0 316.942 0C327.966 0 336.903 8.9543 336.903 20C336.903 31.0457 327.966 40 316.942 40C305.917 40 296.98 31.0457 296.98 20Z" fill="white"/>
<path fill-rule="evenodd" clip-rule="evenodd" d="M165.613 0H177.725L194.026 40H183.501L181.168 34.2751H162.171L159.838 40H149.312L165.613 0ZM166.082 24.6751H177.257L171.669 10.9586L166.082 24.6751Z" fill="white"/>
<path fill-rule="evenodd" clip-rule="evenodd" d="M284.205 0H250.669V16.8H284.205V0ZM284.205 23.2H267.437V40H284.205V23.2Z" fill="url(#paint0_linear_287_2)"/>
<path fill-rule="evenodd" clip-rule="evenodd" d="M66.2724 9.6C60.5397 9.6 55.8924 14.2562 55.8924 20C55.8924 25.7438 60.5397 30.4 66.2724 30.4C72.0051 30.4 76.6524 25.7438 76.6524 20C76.6524 14.2562 72.0051 9.6 66.2724 9.6ZM83.3263 30.4C85.1711 27.3697 86.234 23.8092 86.234 20C86.234 8.9543 77.2969 0 66.2724 0C55.2479 0 46.3108 8.9543 46.3108 20C46.3108 31.0457 55.2479 40 66.2724 40H86.234V30.4H83.3263Z" fill="white"/>
<path fill-rule="evenodd" clip-rule="evenodd" d="M108.591 0V20C108.591 25.7438 113.238 30.4 118.971 30.4C124.704 30.4 129.351 25.7438 129.351 20V0H138.932V20C138.932 31.0457 129.995 40 118.971 40C107.946 40 99.0094 31.0457 99.0094 20V0H108.591Z" fill="white"/>
<defs>
<linearGradient id="paint0_linear_287_2" x1="267.437" y1="0" x2="267.437" y2="40" gradientUnits="userSpaceOnUse">
<stop stop-color="#72ED79"/>
<stop offset="1" stop-color="#53CD5A"/>
</linearGradient>
</defs>
</svg>
