<svg width="114" height="117" viewBox="0 0 114 117" fill="none" xmlns="http://www.w3.org/2000/svg">
<path d="M23.2 10.2V113.2C23.2 114.3 22.7 114.8 21.8 114.8H2.20002C1.30002 114.8 0.900024 114.3 0.900024 113.2V10.2C0.900024 9.29997 1.40003 8.89997 2.30003 8.89997H21.8C22.4 8.79997 23 9.19997 23.1 9.89997C23.2 9.99997 23.2 10.1 23.2 10.2V10.2Z" fill="#FF3366"/>
<path d="M81 116C73.6 116.1 66.2 114.6 59.5 111.5C53.2 108.6 48 103.8 44.4 97.9C40.7 91.8 38.9 84.2 38.9 75.1C38.8 67.7 40.7 60.4 44.4 54C48.2 47.5 53.7 42.1 60.3 38.5C67.3 34.6 75.7 32.7 85.6 32.7C86.1 32.7 86.8 32.7 87.7 32.8C88.6 32.9 89.6 32.9 90.8 33V1.39997C90.8 0.699968 91.1 0.299966 91.8 0.299966H112.1C112.6 0.199966 113 0.599966 113.1 0.999966V1.19997V96.4C113.1 98.2 113.2 100.2 113.3 102.4C113.5 104.5 113.6 106.5 113.7 108.2C113.7 108.9 113.4 109.5 112.7 109.8C107.5 112 102 113.6 96.4 114.6C91.4 115.5 86.2 116 81 116V116ZM90.8 96V52C89.9 51.8 89 51.6 88.1 51.5C87 51.4 85.9 51.3 84.8 51.3C80.9 51.3 77 52.1 73.5 53.9C70.1 55.6 67.2 58.1 65 61.3C62.8 64.5 61.7 68.8 61.7 74C61.6 77.5 62.2 81 63.4 84.3C64.4 87 65.9 89.4 67.9 91.4C69.8 93.2 72.1 94.6 74.7 95.4C77.4 96.3 80.2 96.7 83 96.7C84.5 96.7 85.9 96.6 87.2 96.5C88.5 96.6 89.7 96.4 90.8 96V96Z" fill="#FF3366"/>
</svg>
