<svg width="56" height="52" viewBox="0 0 56 52" fill="none" xmlns="http://www.w3.org/2000/svg">
<g clip-path="url(#clip0_320_16585)">
<path d="M35.1 24.7L13 20.8V49.6172C13 50.9332 14.0669 52 15.3829 52H53.5171C54.8331 52 55.9 50.9332 55.9 49.6172V39L35.1 24.7Z" fill="#185C37"/>
<path d="M35.1 0H15.3829C14.0669 0 13 1.06685 13 2.38289V13L35.1 26L46.8 29.9L55.9 26V13L35.1 0Z" fill="#21A366"/>
<path d="M13 13H35.1V26H13V13Z" fill="#107C41"/>
<path opacity="0.1" d="M28.8171 10.3999H13V42.8999H28.8171C30.1314 42.8956 31.1957 41.8313 31.2 40.517V12.7828C31.1957 11.4685 30.1314 10.4042 28.8171 10.3999Z" fill="black"/>
<path opacity="0.2" d="M27.5171 11.7H13V44.2H27.5171C28.8314 44.1957 29.8957 43.1313 29.9 41.8171V14.0828C29.8957 12.7686 28.8314 11.7042 27.5171 11.7Z" fill="black"/>
<path opacity="0.2" d="M27.5171 11.7H13V41.6H27.5171C28.8314 41.5957 29.8957 40.5313 29.9 39.2171V14.0828C29.8957 12.7686 28.8314 11.7042 27.5171 11.7Z" fill="black"/>
<path opacity="0.2" d="M26.2171 11.7H13V41.6H26.2171C27.5314 41.5957 28.5957 40.5313 28.6 39.2171V14.0828C28.5957 12.7686 27.5314 11.7042 26.2171 11.7Z" fill="black"/>
<path d="M2.38289 11.7H26.2171C27.5331 11.7 28.6 12.7668 28.6 14.0828V37.917C28.6 39.2331 27.5331 40.2999 26.2171 40.2999H2.38289C1.06685 40.3 0 39.2331 0 37.9171V14.0828C0 12.7668 1.06685 11.7 2.38289 11.7Z" fill="url(#paint0_linear_320_16585)"/>
<path d="M7.38013 33.7453L12.3929 25.9778L7.80003 18.2532H11.4946L14.001 23.1932C14.2324 23.6625 14.391 24.0109 14.4768 24.241H14.5093C14.674 23.8666 14.8473 23.503 15.0293 23.1503L17.7086 18.2558H21.1003L16.3904 25.9349L21.2199 33.7453H17.6111L14.716 28.323C14.5797 28.0923 14.4639 27.85 14.3702 27.5989H14.3274C14.2425 27.8449 14.13 28.0804 13.9919 28.3009L11.011 33.7453H7.38013Z" fill="white"/>
<path d="M53.5171 0H35.1V13H55.9V2.38289C55.9 1.06685 54.8331 0 53.5171 0Z" fill="#33C481"/>
<path d="M35.1 26H55.9V39H35.1V26Z" fill="#107C41"/>
</g>
<defs>
<linearGradient id="paint0_linear_320_16585" x1="4.9684" y1="9.838" x2="23.6316" y2="42.1619" gradientUnits="userSpaceOnUse">
<stop stop-color="#18884F"/>
<stop offset="0.5" stop-color="#117E43"/>
<stop offset="1" stop-color="#0B6631"/>
</linearGradient>
<clipPath id="clip0_320_16585">
<rect width="55.9" height="52" fill="white"/>
</clipPath>
</defs>
</svg>
