<svg width="49" height="51" viewBox="0 0 49 51" fill="none" xmlns="http://www.w3.org/2000/svg">
<path fill-rule="evenodd" clip-rule="evenodd" d="M8.44956 8.94136C10.0383 10.2301 10.6343 10.1318 13.6177 9.93304L41.7431 8.24687C42.3396 8.24687 41.8436 7.6527 41.6447 7.55398L36.9737 4.18244C36.0786 3.48864 34.8862 2.69412 32.6008 2.89287L5.36688 4.87613C4.37365 4.97445 4.17529 5.47029 4.57081 5.8677L8.44956 8.94136ZM10.1382 15.4858V45.0325C10.1382 46.6205 10.9329 47.2145 12.7217 47.1163L43.6316 45.3305C45.4213 45.2323 45.6207 44.1401 45.6207 42.8501V13.5016C45.6207 12.2138 45.1245 11.5193 44.0289 11.6184L11.7278 13.5016C10.5357 13.6017 10.1382 14.197 10.1382 15.4858ZM40.6523 17.0707C40.8505 17.964 40.6523 18.8564 39.756 18.9569L38.2667 19.2531V41.0664C36.9737 41.7603 35.7813 42.157 34.7876 42.157C33.1968 42.157 32.7984 41.6609 31.6068 40.1745L21.865 24.905V39.6786L24.9477 40.3731C24.9477 40.3731 24.9477 42.157 22.4606 42.157L15.6043 42.5541C15.4052 42.157 15.6043 41.1664 16.2998 40.9679L18.089 40.4728V20.9392L15.6048 20.7404C15.4056 19.8472 15.9018 18.5592 17.2942 18.4593L24.6495 17.9643L34.7876 33.4325V19.7489L32.2028 19.4527C32.0044 18.3607 32.7984 17.5678 33.7924 17.4694L40.6523 17.0707ZM3.08027 2.19918L31.4079 0.116299C34.8866 -0.181586 35.7817 0.0179736 37.9681 1.60371L47.0106 7.94938C48.5027 9.04059 49 9.33767 49 10.5272V45.3305C49 47.5117 48.2041 48.8017 45.4218 48.999L12.5249 50.9825C10.4362 51.0819 9.44218 50.7847 8.34837 49.3957L1.68931 40.7694C0.496211 39.1815 0 37.9936 0 36.6038V5.66825C0 3.88455 0.796068 2.39663 3.08027 2.19918Z" fill="black"/>
</svg>
