<svg width="55" height="55" viewBox="0 0 55 55" fill="none" xmlns="http://www.w3.org/2000/svg">
<path d="M24.3594 0.00015748C18.3172 0.00015748 12.9491 3.87412 11.078 9.59202C9.1578 9.98613 7.34393 10.7829 5.75708 11.9294C4.17024 13.0759 2.84682 14.5457 1.87491 16.2411C-1.15545 21.4561 -0.46348 28.0122 3.59622 32.4821C2.34285 36.226 2.77301 40.323 4.77469 43.7133C7.7865 48.9467 13.8466 51.6288 19.7767 50.3808C21.0751 51.8399 22.671 53.0066 24.4579 53.8031C26.2449 54.5996 28.1819 55.0076 30.1397 54.9999C36.1819 54.9999 41.55 51.1259 43.4211 45.408C47.3117 44.6068 50.6603 42.1855 52.6056 38.7589C55.6545 33.5439 54.9625 26.9879 50.9035 22.518V22.4995C51.5227 20.6489 51.7378 18.688 51.5346 16.7479C51.3314 14.8079 50.7144 12.9334 49.725 11.2498C46.7126 6.03483 40.6518 3.35209 34.7409 4.60008C33.4365 3.1448 31.8364 1.98214 30.0467 1.18912C28.2569 0.3961 26.3183 -0.00917173 24.3594 0.00015748ZM24.3594 3.57648L24.3408 3.59496C26.7726 3.59496 29.111 4.43311 30.9815 5.97939C30.9066 6.01635 30.7568 6.10941 30.6448 6.1655L19.6461 12.4793C19.0847 12.7961 18.748 13.3921 18.748 14.0441V28.8694L14.0156 26.1504V13.895C14.0145 11.1613 15.1033 8.53893 17.0428 6.60406C18.9823 4.66919 21.6139 3.58068 24.3594 3.57648ZM37.6089 7.89262C39.4316 7.88913 41.2228 8.36482 42.8017 9.2716C44.3805 10.1784 45.691 11.4841 46.6006 13.0568C47.7976 15.1429 48.2463 17.5828 47.8347 19.9481C47.7598 19.892 47.6107 19.8181 47.5166 19.762L36.5179 13.429C36.2412 13.2732 35.9287 13.1913 35.6109 13.1913C35.293 13.1913 34.9805 13.2732 34.7038 13.429L21.8155 20.8417V15.403L32.4589 9.27524C34.0238 8.37186 35.8 7.89477 37.6089 7.89196V7.89262ZM10.4053 13.5221V26.5411C10.4053 27.1931 10.742 27.7706 11.3034 28.1059L24.1724 35.5001L19.4208 38.2376L8.79595 32.1283C6.42155 30.7582 4.69015 28.5059 3.98184 25.866C3.27352 23.226 3.64615 20.4141 5.01794 18.0474C6.22807 15.9589 8.13395 14.3583 10.4053 13.5221ZM35.0591 16.744L45.7025 22.8533C50.6596 25.703 52.3425 31.9983 49.4805 36.9342L49.499 36.9526C48.2834 39.0388 46.3752 40.6405 44.1117 41.4602V28.4405C44.1117 27.7884 43.775 27.1925 43.2136 26.8764L30.326 19.463L35.0591 16.744ZM27.2399 21.233L32.665 24.3619V30.6012L27.2399 33.73L21.8155 30.6012V24.3619L27.2399 21.233ZM35.7696 26.1504L40.5021 28.8694V41.1064C40.5021 46.8058 35.8631 51.4249 30.1583 51.4249V51.4064C27.745 51.4064 25.388 50.5683 23.5361 49.0226C23.611 48.9857 23.7794 48.892 23.8729 48.8359L34.8715 42.522C35.4329 42.2053 35.7882 41.6093 35.7689 40.9573L35.7696 26.1504ZM32.6829 34.159V39.5971L22.0395 45.7063C17.0824 48.5376 10.7599 46.8613 7.89785 41.9439H7.91641C6.70082 39.8763 6.26999 37.4179 6.68159 35.0526C6.75649 35.1087 6.90629 35.1826 6.99974 35.2387L17.9984 41.5717C18.2751 41.7275 18.5876 41.8094 18.9054 41.8094C19.2233 41.8094 19.5358 41.7275 19.8125 41.5717L32.6829 34.159Z" fill="white"/>
</svg>
