<svg width="145" height="109" viewBox="0 0 145 109" fill="none" xmlns="http://www.w3.org/2000/svg">
<path fill-rule="evenodd" clip-rule="evenodd" d="M0 2.2V105.1C0 106 0.400001 106.4 1.2 106.4H20.2H20.6C21.3 106.3 21.8 105.7 21.7 105V72.9C23.6 72.9 25 72.9 26 73C27 73.1 28.6 73.1 31 73.1C39.2 73.1 46.7 72.2 53.5 69.7C60 67.3 65.6 63.1 69.6 57.5C73.6 51.9 75.6 44.8 75.6 36.2C75.6 31.7 74.8 27.4 73.3 23.2C71.7 18.9 69.2 15 66 11.8C62.2 8.1 57.6 5.3 52.6 3.6C47 1.5 40.2 0.5 32 0.5C29 0.5 26 0.5 22.9 0.599998C21.4034 0.648276 19.9534 0.673247 18.55 0.697415C17.0465 0.723307 15.5965 0.748277 14.2 0.799999C12.8905 0.848501 11.628 0.873478 10.4011 0.897751C9.09846 0.923524 7.83597 0.948501 6.6 1C4.30003 1.1 2.70005 1.1 1.00008 1.1H1C0.3 1.1 0 1.5 0 2.2ZM21.8 54V20.4C22.5 20.3 23.9 20.2 25.9 20.3C27.8 20.2 30.1 20.2 32.7 20.2C36.8 20.1 40.8 20.7 44.5 22.2C47.4 23.3 49.8 25.3 51.5 27.9C53.1 30.6 53.9 33.7 53.8 36.8C53.8 41.2 52.8 44.6 50.7 47.1C48.5 49.6 45.7 51.5 42.5 52.4C38.8 53.6 34.9 54.2 31 54.2H25.7C24.5862 54.2 23.3862 54.1138 22.1 54.0215C22.0005 54.0144 21.9005 54.0072 21.8 54ZM128.4 44.5C131.8 45.2 135 46.3 138 47.9C138.4 48.1 138.9 48.1 139.8 47.9C140.1 47.7 140.3 47.3 140.3 46.9V30.6C140.3 30.2 140.2 29.8 140.1 29.4C139.9 29 139.5 28.6 139.1 28.5C136.4 27.4 133.5 26.6 130.5 26.2C126.4 25.6 122.2 25.3 118.1 25.3C111 25.3 105.1 26.4 100.4 28.8C96.1 30.8 92.4 34 89.9 38C87.7 41.7 86.5 45.8 86.5 50.1C86.4 53.6 87.2 57.1 88.8 60.3C90.7 63.7 93.3 66.6 96.4 68.8C100.8 71.8 105.5 74.2 110.6 76C115.5 77.9 118.8 79.4 120.4 80.7C122 82 122.8 83.3 122.8 84.7C122.8 86.5 121.7 88.2 120.1 88.9C118.3 89.8 115.6 90.3 111.8 90.3C107.8 90.3 103.8 89.8 100 88.8C95.6 87.8 91.5 86.2 87.6 83.9C87.3 83.7 87 83.6 86.7 83.8C86.4 84 86.3 84.4 86.3 84.7V102.1C86.2 102.9 86.7 103.6 87.4 104C90.6 105.5 94.1 106.6 97.6 107.2C102.1 108.1 106.6 108.5 111.2 108.5C118.4 108.5 124.4 107.4 129.3 105.3C133.8 103.5 137.7 100.4 140.5 96.4C143.1 92.5 144.5 87.8 144.4 83.1C144.5 79.5 143.7 76 142.1 72.8C140.2 69.4 137.5 66.6 134.2 64.5C129.4 61.5 124.2 59 118.8 57.2C116.4 56.2 114 55.1 111.7 53.9C110.4 53.2 109.2 52.3 108.3 51.2C107.7 50.4 107.3 49.5 107.3 48.6C107.3 47.7 107.6 46.7 108.1 45.9C108.8 44.9 109.9 44.2 111.2 43.9C113.1 43.4 115.2 43.1 117.2 43.2C121 43.2 124.7 43.7 128.4 44.5Z" fill="#31A8FF"/>
</svg>
