<svg width="76" height="40" viewBox="0 0 76 40" fill="none" xmlns="http://www.w3.org/2000/svg">
<path d="M23.8086 0H31.9581V25.032C31.9581 27.8426 31.2868 30.3018 29.9443 32.4098C28.6142 34.5178 26.7509 36.1615 24.3544 37.3409C21.9579 38.5078 19.1661 39.0913 15.979 39.0913C12.7795 39.0913 9.98142 38.5078 7.58487 37.3409C5.18833 36.1615 3.32505 34.5178 1.99503 32.4098C0.665009 30.3018 0 27.8426 0 25.032V0H8.1495V24.3356C8.1495 25.8036 8.46946 27.1085 9.10938 28.2504C9.76184 29.3922 10.6778 30.2893 11.8572 30.9418C13.0367 31.5942 14.4106 31.9205 15.979 31.9205C17.56 31.9205 18.9339 31.5942 20.1009 30.9418C21.2803 30.2893 22.19 29.3922 22.8299 28.2504C23.4824 27.1085 23.8086 25.8036 23.8086 24.3356V0Z" fill="white"/>
<path d="M50.5444 0L58.3175 13.1371H58.6186L66.4294 0H75.6328L63.8697 19.2727L75.8963 38.5455H66.5235L58.6186 25.3896H58.3175L50.4127 38.5455H41.0774L53.1417 19.2727L41.3033 0H50.5444Z" fill="white"/>
</svg>
