<svg width="34" height="23" viewBox="0 0 34 23" fill="none" xmlns="http://www.w3.org/2000/svg">
<path d="M25.4 6.71999L22.5 15.86C22.5 15.16 20.5 0 20.5 0C15.9 0 13.46 3.25999 12.18 6.71999L8.64001 15.88C8.64001 15.22 8.14001 6.8 8.14001 6.8C7.96925 4.97724 7.13596 3.2804 5.79796 2.03086C4.45996 0.781323 2.71017 0.0658615 0.880005 0.0199966L4.64001 22.98C9.44001 22.98 12.04 19.72 13.38 16.26L16.38 8.46C16.38 8.78 18.38 22.98 18.38 22.98C20.3428 22.9775 22.2538 22.35 23.836 21.1885C25.4182 20.027 26.5895 18.3918 27.18 16.52L33.98 0C29.18 0 26.66 3.25999 25.38 6.71999H25.4Z" fill="white"/>
</svg>
